<svg id="Layer_1" data-name="Layer 1" xmlns="http://www.w3.org/2000/svg" viewBox="0 0 612 792"><defs><style>.cls-1{fill:#2765b0;}</style></defs><title>Comission</title><path class="cls-1" d="M400.14,437.12v-6.87c9.36-4.67,15.93-13.74,15.93-24a57.61,57.61,0,0,0-.7-9.62H401v-8.66h13a89.87,89.87,0,0,1-1.54-14.84c0-16.21,11.31-26.79,26.82-26.79,7.27,0,12.3,1.65,15.23,3.44l-2.8,9.07a25.73,25.73,0,0,0-12.43-2.75c-10.89,0-15.36,7.41-15.36,17.18a73.22,73.22,0,0,0,1.67,14.7h20.12v8.66h-19c.42,5.22.7,10.44-.56,15.39a28.59,28.59,0,0,1-9.64,14.84v.28h41.62v10h-58Z"/><path class="cls-1" d="M514.67,448.07c-2.52-1.3-2.92-2.75-2.91-5.16.06-19.2.33-38.4,0-57.59-.6-31.79-15-55.83-42-72.3-9.86-6-20.73-9.26-32.12-11.11h17.19c9.49,0,9.49,0,9.15-9.57a2.29,2.29,0,0,1,0-.37c.27-1.69-.51-2.1-2.1-2.07-4.22.1-8.44,0-12.56,0-.52-1,.09-1.63.34-2.29q6.63-17.77,13.32-35.52c1.1-2.92,1.82-5.78-.71-8.31s-5.57-1.85-8.62-.59c-7.45,3.08-15,5.93-22.41,9.07a7.48,7.48,0,0,1-6.34,0c-7.55-3.15-15.18-6.1-22.76-9.19-2.93-1.19-5.75-1.8-8.29.74s-2,5.15-.86,8c.86,2.19,1.69,4.39,2.52,6.6,3.9,10.41,7.8,20.83,11.82,31.59h-6.33c-9,0-8.88,0-8.95,9.1,0,2.68,1,2.95,3.2,2.92,7.47-.11,14.95,0,22.42,0l0,.46c-1.8.34-3.6.69-5.41,1-38.23,6.74-67.86,41.75-68,80.52q-.13,29.73,0,59.46c0,2.26-.57,3.44-2.67,4.55a17.52,17.52,0,0,0-8.89,19.88c2.2,8.27,9,13.68,17.36,13.68q78,0,156,0c8.37,0,15.13-5.46,17.32-13.75A17.39,17.39,0,0,0,514.67,448.07ZM408.59,258.8c5.6,2.22,10.39,3.92,15,6a10.16,10.16,0,0,0,8.92,0c4.61-2,9.35-3.74,14.81-5.9-2.76,7.39-5.22,14.07-7.74,20.73-1.26,3.35-1.75,7.72-4.17,9.7s-7,.23-10.53.67-5.17-.89-6.32-4.28C415.59,276.93,412.16,268.31,408.59,258.8ZM503,469.51H353.44c-1,0-2,.05-3,0-3.67-.27-6.34-2.94-6.22-6.15a6.1,6.1,0,0,1,6.22-5.75q7.29-.21,14.58,0c2.25.07,3.49-.28,3.14-2.94-.38-2.92,1.24-6.84-.66-8.56-1.59-1.45-5.43-.6-8.26-.47-2.28.1-3.18-.34-3.16-3,.14-19.44-.16-38.89.15-58.33A71.76,71.76,0,0,1,499,374.94a78.1,78.1,0,0,1,.83,11.54c.08,18.57,0,37.14.11,55.72,0,2.79-.64,3.51-3.45,3.45-8.64-.17-8.5,0-8.68,8.54-.06,2.83.68,3.61,3.47,3.43,4-.26,8-.07,12-.07,5.6,0,8.63,2.16,8.55,6.08S508.7,469.51,503,469.51Z"/><path class="cls-1" d="M408.14,499.45H322.71c2.54-2.48,4.42-4.28,6.26-6.12,4.57-4.59,4.6-7.09.06-11.63q-34.36-34.4-68.72-68.8a10.23,10.23,0,0,0-7.89-3.3c-28,.11-56.1,0-84.15.11-2.69,0-3.84-.35-3.76-3.51.23-8.56.06-8.4-8.61-8.61-3-.07-3.34,1-3.33,3.56q.12,50.49,0,101c0,2.44.33,3.42,3.13,3.38,8.84-.13,9,0,8.81-8.77-.07-3,1-3.36,3.56-3.34q22.62.18,45.25,0a7.76,7.76,0,0,1,5.35,2q30.17,24.81,60.41,49.51a10,10,0,0,0,6.77,2.45q61.33-.09,122.67,0c5.61,0,7.49-1.94,7.5-7.68q0-16.08,0-32.16C416,501.23,414.28,499.45,408.14,499.45Zm-4,15.76c-.26,5.72-.22,11.47,0,17.2.09,2.56-.78,3-3.12,3-18.7-.09-37.41,0-56.11,0-18.33,0-36.66,0-55,0a8.7,8.7,0,0,1-6-2.24c-20-16.47-40.12-32.82-60.13-49.27a10.42,10.42,0,0,0-7.14-2.46c-16.21.09-32.42,0-48.63.12-2.81,0-3.46-.67-3.44-3.45q.21-26.55,0-53.12c0-2.82.68-3.45,3.46-3.43q40.4.18,80.8,0a6.56,6.56,0,0,1,5.18,2.15q30.6,30.76,61.39,61.33c2.07,2.05,1.91,3.06-.09,4.89-3.86,3.53-7.54,7.27-11.12,11.09-1.51,1.61-2.35,1.4-3.79-.07-9.1-9.23-18.35-18.33-27.43-27.58-1.71-1.74-2.88-2.29-4.56-.09s-5.72,4-5.59,6.48c.11,2.17,3.52,4.19,5.53,6.22q14.26,14.31,28.57,28.57c4,4,6.93,4.12,10.78-.05a9.45,9.45,0,0,1,7.78-3.17q42.45.18,84.91,0C403.53,511.32,404.27,512.16,404.13,515.21Z"/><path class="cls-1" d="M330.21,327a5.93,5.93,0,0,1,.51-6.13c12-20.28,16.1-42.06,12-65.29a95.59,95.59,0,0,0-110.84-78c-45.89,8-79.26,47.7-79.27,95.2a71.34,71.34,0,0,0,1.75,18A95.85,95.85,0,0,0,297.7,354.05a5.35,5.35,0,0,1,5.46-.41c10.37,4.45,20.8,8.76,31.2,13.14,2.8,1.18,5.54,1.66,8-.68s2.09-5.31.85-8.25C338.87,347.58,334.67,337.23,330.21,327ZM304,340.84a9,9,0,0,0-9.39.82c-50.16,32.57-115.35,5.6-128.23-53-9.51-43.26,19.57-88.64,62.95-98.25,46.64-10.34,91.66,18.45,101.21,65.09,4.51,22,.4,42.8-11.84,61.73-2.44,3.78-2.91,7-1,11.05,3.17,7,5.94,14.1,9.29,22.17C318.54,347,311.2,344,304,340.84Z"/><path class="cls-1" d="M292.31,220.09c.44.4.92.81,1.36,1.24a52.77,52.77,0,0,0,4.53,4.45c2.47,1.9,1.9,3.18-.08,5.15Q256,272.89,214,315c-2.47,2.47-5.05,4.83-7.37,7.43-1.48,1.66-2.4,1.49-3.75-.08-2-2.34-5.66-4.36-5.89-6.78-.19-1.94,3.61-4.32,5.72-6.43q43.37-43.39,86.77-86.76C290.26,221.54,290.92,220.4,292.31,220.09Z"/><path class="cls-1" d="M218.47,218.1a23.94,23.94,0,1,0,23.95,23.83A23.77,23.77,0,0,0,218.47,218.1Zm.08,35.9a12,12,0,1,1,11.88-11.94A12.28,12.28,0,0,1,218.55,254Z"/><path class="cls-1" d="M278.5,278a23.95,23.95,0,1,0,23.79,24A23.78,23.78,0,0,0,278.5,278Zm0,35.9a12,12,0,1,1,11.82-12A12.28,12.28,0,0,1,278.48,313.86Z"/></svg>