<svg id="Layer_1" data-name="Layer 1" xmlns="http://www.w3.org/2000/svg" viewBox="0 0 612 792"><defs><style>.cls-1{fill:#2765b0;}</style></defs><title>Documents</title><path class="cls-1" d="M491.48,326c.29-.65,1.1-1.55,1.39-1.18a2.22,2.22,0,0,1-.45,2.87C492.2,327,492.26,326.27,491.48,326Z"/><path class="cls-1" d="M512.87,287.56c-2.23-10.66-8.64-17.94-19-21s-19.68-.45-27.4,7.25Q449.23,291,432,308.15c-.69.69-1.18,1.82-2.54,1.78,0-18.09,0-36.05-.05-54,0-2.33.66-2.95,3-3.44,20.73-4.35,35-24.09,32.86-45.25a41.91,41.91,0,0,0-41.39-37.55q-120.27-.09-240.56,0c-22.34,0-41.14,18.62-41.16,40.81q-.12,149.65,0,299.3c0,5,2.07,7,7,7,8.36,0,16.72.14,25.07-.06,3-.08,4.2.43,3.91,3.74-.34,4-.08,8-.08,12,0,6.7,1.63,8.31,8.37,8.31H421c6.91,0,8.47-1.58,8.47-8.59q0-70.52,0-141c0-1.68-.24-3.25,1.29-4.77q30.42-30.12,60.68-60.42c1.76-.24,1.22.79.94,1.69a70.43,70.43,0,0,1-14.7,29.75c-8.52,10.47-18.77,19.29-28.11,29-2.06,2.14-5.67,4.29-5.7,6.49s3.73,4.2,5.62,6.48c1.56,1.88,2.55,1.84,4.3.05,8.72-8.92,17.65-17.63,26.39-26.52,15.18-15.42,24.21-33.83,26.44-55.44.49-4.67,1.2-9.08,3.85-13.29C513.65,299.2,514.07,293.33,512.87,287.56Zm-62.81,19.78c3.4-3.4,3.37-3.38,6.91.09a20.36,20.36,0,0,0,2.43,1.86,2.81,2.81,0,0,1-1.21,2.67q-35.94,36-71.87,72c-1.48,1.49-2.2,1.17-3.53-.12-4.65-4.55-4.7-4.5-.15-9ZM332,428.76c-1.52-1.47-1.18-2.22.13-3.52q17.89-17.76,35.69-35.62c.93-.93,1.61-2.23,3.22-.58,6.17,6.33,12.47,12.54,18.71,18.79.34.34.64.72.87,1,0,1.06-.76,1.42-1.26,1.92-12,12-24,23.93-35.88,36-1.39,1.4-2.13,1.43-3.52,0Q341.06,437.61,332,428.76Zm9,26.8c-7.48,3.73-15.14,7.49-22.74,11.36-2.31,1.18-2.62-1.15-3.8-1.9-3-1.92-3.17-4.08-1.35-7.3,3.71-6.56,6.85-13.44,10.1-19.94ZM214.14,182.07c.81-.88,1.86-.42,2.77-.42q102.47,0,205,0c16,0,28.55,10.06,30.94,24.69,3,18.17-9.83,34.08-28.23,35.11-.38,0-.75,0-1.13,0H213.88C230.75,222.48,229.24,198.56,214.14,182.07ZM178,225.14c.24,91.78.11,183.57.22,275.35,0,3.46-.55,4.74-4.33,4.49-5.71-.39-11.46-.17-17.2-.07-1.84,0-2.87-.33-2.51-2.41a9.38,9.38,0,0,0,0-1.5V213.68c0-15.48,8.21-26.91,22.08-30.84a29.49,29.49,0,0,1,36.89,22.73c-5.42,0-10.55.32-15.63-.07C186.84,204.69,177.91,213.77,178,225.14Zm35.41-7.58c-3.29,12.4-10.85,20-23.3,23.3,0-5.86-.07-11.2,0-16.53.06-4,2.21-6.59,6-6.72C201.7,217.42,207.38,217.56,213.36,217.56ZM413.53,528.89q-109.78-.14-219.58,0c-3.38,0-4-.89-4-4.07q.14-133.73,0-267.46c0-3.32.8-4,4-4q109.78.15,219.58,0c3.27,0,4.05.73,4,4-.18,20.7-.13,41.4,0,62.1a6.92,6.92,0,0,1-2.27,5.51q-11.12,10.85-21.95,22a7.32,7.32,0,0,1-5.86,2.32c-56.48,0-113,0-169.45-.14-3.56,0-4.22,1.07-4.12,4.3.22,7.77.07,7.77,8,7.77h157.4c-4.3,4.18-7.92,7.66-11.48,11.2-1.29,1.27-2.82.75-4.24.75q-72.75,0-145.51-.06c-3.4,0-4.32.82-4.21,4.21.27,7.84.09,7.84,8,7.84h133.3c-12.29,12.26-23.92,23.89-35.59,35.46A23.25,23.25,0,0,0,315,426.9c-5.22,10.57-10.45,21.14-15.81,31.64-1.7,3.33-2.25,6.38.76,9.12,1.49,1.36.49,2.07-.41,3-3.36,3.34-6.64,6.77-10.09,10-1.58,1.48-2,2.48-.08,4,2.41,1.88,4.14,5.94,6.74,5.83,2.24-.1,4.34-3.7,6.48-5.77,1-.95,2-1.88,2.9-2.92,2.21-2.56,4.17-5.1,7.78-1.52,1.49,1.48,3.79.81,5.64-.12,11.67-5.81,23.34-11.61,35-17.52a17.16,17.16,0,0,0,4-3.29q28.33-28.27,56.61-56.6c.83-.84,1.59-1.75,3-3.34v4.72c0,40.28-.06,80.55.09,120.83C417.63,528.37,416.66,528.9,413.53,528.89Zm57.74-200.06Q436.64,363.47,402,398.09c-.76.76-1.33,1.82-3,2.13-1.65-1.74-3.76-3.42-5.11-5.59-1-1.58,1.25-2.4,2.19-3.33,23.13-23.23,46.35-46.36,69.44-69.63,2.24-2.25,3.46-2.64,5.7-.06C474.61,325.47,474.8,325.3,471.27,328.83Zm26.48-26.75c-4.06,4.69-8.71,8.88-13,13.34-1,1.09-1.7,1-2.7,0q-9.31-9.42-18.74-18.74c-1.15-1.12-.81-1.76.14-2.7,4.36-4.26,8.6-8.64,13-12.84,2.61-2.5,6-3.41,9.6-3.72,6.12.37,10.94,3,13.69,8.68S501.84,297.36,497.75,302.08Z"/><path class="cls-1" d="M304.17,277.4c28.68,0,57.36.05,86-.07,2.8,0,3.5.65,3.45,3.45-.17,8.59,0,8.6-8.7,8.6q-83.61,0-167.21.07c-3.11,0-3.92-.7-3.83-3.82.23-8.22.07-8.23,8.33-8.23Z"/><path class="cls-1" d="M303.79,313.32c-28.8,0-57.6,0-86.41.07-2.77,0-3.51-.62-3.46-3.44.18-8.6,0-8.6,8.69-8.6q83.61,0,167.22-.08c3.09,0,3.93.68,3.84,3.82-.24,8.23-.07,8.23-8.33,8.23Z"/><path class="cls-1" d="M303.52,337.27c-28.55,0-57.11-.08-85.66.09-3.46,0-4-1-3.93-4.11.21-7.95.07-8,8.21-8q83.61,0,167.21-.06c3.16,0,4.49.43,4.34,4.08-.33,7.95-.1,8-8.25,8Z"/><path class="cls-1" d="M303.8,504.88c-28.8,0-57.6-.05-86.41.06-2.75,0-3.53-.58-3.47-3.42.18-8.61,0-8.62,8.68-8.62q83.61,0,167.22-.07c3.07,0,3.94.65,3.85,3.81-.24,8.23-.07,8.24-8.32,8.24Z"/><path class="cls-1" d="M247.23,469c9.85,0,19.7.07,29.55,0,2.31,0,3.16.4,3.14,3-.06,9,.05,9-9,9-18,0-35.91,0-53.86.05-2.31,0-3.16-.4-3.14-3,.06-9-.05-9,9-9Z"/></svg>