<svg id="Layer_1" data-name="Layer 1" xmlns="http://www.w3.org/2000/svg" viewBox="0 0 612 792"><defs><style>.cls-1{fill:#2765b0;}</style></defs><title>Find</title><path class="cls-1" d="M297.14,263.07c-19.82,0-39.65-.06-59.47.07-2.78,0-3.52-.61-3.46-3.43.17-8.61,0-8.61,8.69-8.61,37.78,0,75.56,0,113.34-.08,3.09,0,3.93.68,3.84,3.82-.24,8.23-.07,8.23-8.32,8.23Z"/><path class="cls-1" d="M383.94,299c16.83,0,33.67.07,50.5-.07,2.79,0,3.51.63,3.45,3.44-.17,8.6,0,8.6-8.69,8.6-31.8,0-63.59,0-95.39.08-3.1,0-3.92-.7-3.83-3.83.24-8.22.07-8.22,8.33-8.22Z"/><path class="cls-1" d="M383.56,340.89c-16.71,0-33.42-.07-50.13.08-2.8,0-3.5-.66-3.44-3.46.17-8.59,0-8.59,8.7-8.59,31.79,0,63.59.05,95.38-.08,3.11,0,3.92.72,3.83,3.83-.24,8.22-.07,8.22-8.34,8.22Z"/><path class="cls-1" d="M390.3,358.85c14.84,0,29.67.06,44.51-.06,2.43,0,3.08.61,3.07,3.06-.06,9,0,9-9.06,9-27.8,0-55.6,0-83.41.07-2.78,0-3.51-.63-3.45-3.44.17-8.6,0-8.6,8.69-8.6Z"/><path class="cls-1" d="M324.42,233.14c-11.1,0-22.2-.08-33.29.07-2.5,0-3-.72-3-3.1,0-8.94,0-8.94,8.71-8.94,19.95,0,39.9.07,59.84-.08,2.86,0,3.47.75,3.42,3.48-.16,8.57,0,8.57-8.73,8.57Z"/><path class="cls-1" d="M407.89,400.75c-9.11,0-18.21-.06-27.31.05-2.1,0-2.66-.55-2.68-2.66-.11-9.36-.19-9.36,9-9.36,15.95,0,31.91.05,47.87-.06,2.42,0,3.08.6,3.07,3-.06,9,0,9-9.05,9Z"/><path class="cls-1" d="M251.87,233.14c-5.11,0-10.22-.07-15.33,0-1.8,0-2.24-.5-2.31-2.28-.37-9.73-.43-9.73,9.41-9.73,8,0,16,.07,23.93,0,2.11,0,2.66.56,2.69,2.67.11,9.35.18,9.35-9,9.35Z"/><path class="cls-1" d="M353.9,400.75c-3.12,0-6.23-.08-9.34,0-1.82.06-2.54-.29-2.59-2.39-.24-9.62-.32-9.62,9.16-9.62,4.11,0,8.22.07,12.33,0,1.81-.05,2.53.29,2.59,2.38.23,9.63.32,9.62-9.16,9.62Z"/><path class="cls-1" d="M485.7,224.17c0-7.55-1.41-9-8.81-9-21.57,0-43.14,0-64.71.06a6.92,6.92,0,0,1-5.76-2.52c-5.48-6.14-11.17-12.09-16.67-18.21a9.21,9.21,0,0,0-7.46-3.33q-88.11.12-176.2.06c-5.91,0-7.72,1.83-7.72,7.82,0,27.68,0,55.37.06,83.05,0,2.52-.65,3.51-3.12,4.36-46.47,15.87-75.65,63.07-67.71,111.26,6.59,40,29.75,67.19,67.82,81.41,2.25.84,3,1.69,3,4.08-.13,11.85-.07,23.69-.06,35.54,0,5.89,1.85,7.7,7.85,7.7,16.34,0,32.67,0,49-.06,2.43,0,3.19.6,3.06,3.06-.21,4.1-.06,8.23-.06,12.34,0,7,1.55,8.61,8.45,8.61h210.6c6.77,0,8.42-1.63,8.42-8.27v-318Zm-95.76-9.76a7.94,7.94,0,0,1,.33-1.37l51.75,56h-25.6c-8,0-15.95,0-23.93,0-1.71,0-2.64-.11-2.62-2.33C390,249.31,389.93,231.86,389.94,214.41ZM138.51,382.54c0-49.08,40.59-89.57,89.74-89.54,49.45,0,89.85,40.43,89.83,89.83,0,49.24-40.41,89.73-89.52,89.75A90.18,90.18,0,0,1,138.51,382.54Zm75.51,132c-3.22,0-3.83-.9-3.75-3.9.21-8.47.11-16.95,0-25.42,0-1.77.28-2.35,2.26-2a98.28,98.28,0,0,0,60.49-9.1c1.62-.8,2.84-1.4,4.53.32,13,13.22,26.17,26.32,39.86,40h-4C280.32,514.49,247.17,514.43,214,514.58Zm58.38,23.89c-1.86,0-2.18-.62-2.24-2.33-.35-9.68-.4-9.68,9-9.68,15.82,0,31.63,0,47.44,0a6.06,6.06,0,0,1,4.9,1.94c3,3.25,6.26,6.33,10,10.07C317.94,538.43,295.17,538.41,272.4,538.47Zm102.91-8.12a17.81,17.81,0,0,1-24.65-.12c-8.43-8.13-16.62-16.5-24.9-24.78l-39.22-39.23a102.68,102.68,0,0,0,24.91-24.82c21.87,21.7,43.85,43.19,65.42,65.09C383.36,513.07,382.12,523.94,375.31,530.35Zm-54.11-97c-2.11-2.09-2.68-3.6-1.24-6.56,28.84-59.06-6-129.91-70.48-143.53a96.76,96.76,0,0,0-36.72-.9c-2.15.37-2.46-.24-2.45-2.17.05-24.81.09-49.62,0-74.43,0-2.83,1.42-2.52,3.19-2.52q33.48,0,67,0c31.17,0,62.34.07,93.51-.1,3.57,0,4.12,1.1,4.1,4.31-.13,21.94-.07,43.88-.07,65.83,0,5.94,1.83,7.78,7.77,7.78,19.95,0,39.9.12,59.84-.11,3.77,0,4.32,1.07,4.31,4.51-.13,37.52-.08,75.05-.08,112.58s0,75.3.07,113c0,3-.82,3.62-3.67,3.6q-25.24-.21-50.49,0c-2.14,0-3.11-.5-3.44-2.69-1-6.79-4.61-12.19-9.41-17C362.28,474.38,341.8,453.79,321.2,433.31ZM469.64,538.52c-26.94-.16-53.87-.09-80.81-.09h-4.15c2.72-3.5,5.09-6.66,6.24-10.47.63-2.12,2.29-1.48,3.66-1.48q29.37,0,58.74,0c6.78,0,8.44-1.62,8.44-8.24q0-120.47.06-240.93a11.22,11.22,0,0,0-3.31-8.28c-12.75-13.67-25.38-27.46-38.64-41.85,17.85,0,34.9,0,52,0,1.42,0,2.08.38,1.91,1.88a20.91,20.91,0,0,0,0,2.24q0,151.51.08,303C473.81,537.6,473.09,538.54,469.64,538.52Z"/><path class="cls-1" d="M229.32,305c-44.26,0-78.82,34.29-78.84,78.31,0,42.63,34.94,77.3,77.93,77.32a77.77,77.77,0,0,0,77.71-77.56C306.12,340.12,271.59,305,229.32,305Zm-1,143.65c-35.71.18-65.75-29.71-65.82-65.49-.06-36.09,29.36-66,65.1-66.18a66,66,0,0,1,66.55,65.84C294.31,418.73,264.59,448.45,228.29,448.63Z"/></svg>