<svg id="Layer_1" data-name="Layer 1" xmlns="http://www.w3.org/2000/svg" viewBox="0 0 612 792"><defs><style>.cls-1{fill:#2765b0;}</style></defs><title>Marketing</title><path class="cls-1" d="M474.88,204.56c8.13,4.11,8.95,9.48,2.43,16q-14.37,14.4-28.77,28.78c-2.12,2.12-4.45,3.92-7.62,3.74a7.91,7.91,0,0,1-6.12-12.33,21.18,21.18,0,0,1,2.82-3.32c9-9,18.07-18,27.05-27.12,2.33-2.34,4.68-4.57,7.82-5.77Z"/><path class="cls-1" d="M414.22,204.56c4.36,2.76,5.6,6.9,5.3,11.78-.27,4.48.46,9-.42,13.46-.82,4.18-3.64,6.64-7.59,6.7a7.3,7.3,0,0,1-7.79-6.41c-1.05-6.27-.73-12.62-.14-18.94.31-3.31,3-4.69,5.06-6.59Z"/><path class="cls-1" d="M532.84,368.07c-14.3-11-28.45-22.26-42.86-33.17-4.81-3.64-8.34-7.1-7.86-13.88.38-5.26-3.94-8.87-8.8-8.89a8.74,8.74,0,0,0-9,8.82c-.13,8.84-.75,17.7.36,26.52-.48-1.69-1.82-2.89-3.06-4.14-10.91-10.91-21.77-21.86-32.77-32.68-2-2-2.44-3.65-1.26-6.28a34.08,34.08,0,0,0,2.14-22.24,35,35,0,0,0-47.4-24.44c-3.39,1.38-5.63.92-8.09-1.65-5.42-5.67-11.05-11.14-16.61-16.68s-11.19-11.38-17-16.88c-3.94-3.75-8.89-3.9-12.55-.63-1.85,1.65-2.73,3.89-3.68,6.09q-25.35,59.44-50.6,118.93a24.19,24.19,0,0,1-5.38,7.82c-8.68,8.62-17.62,17-25.9,26-12.93,14.07-16,30.49-8.52,48.06,7.19,16.86,20.89,25.53,39,26.6,12.06.71,22.66-3.73,31.74-11.74,3.36-3,3.59-2.9,6.82.3q8.64,8.56,17.2,17.22c.86.87,2.23,1.46,2.22,3.08a19.17,19.17,0,0,1-5.52.92c-1.85.1-3.71.15-5.56.42-19.18,2.88-35.48,11.56-49.64,24.59-3.8,3.5-3.86,3.53-7.64-.25-19.1-19.08-38.14-38.21-57.32-57.21a12.32,12.32,0,0,1-3.92-9.52q.12-97.93.06-195.87c0-5.5.13-5.63,5.54-5.63h77.8a47.09,47.09,0,0,0,5.18-.11c4.83-.54,8.09-3.57,8.63-8,.53-4.28-1.71-7.37-6.5-9H189.94c-5.15,1.77-6.58,3.7-6.84,9.3-.07,1.6,0,3.19,0,4.79,0,33.5-.15,67,.14,100.51.05,6.13-1.93,10-6.69,13.71-14.49,11.26-28.63,23-43,34.37-3.57,2.83-5.48,6.08-5.48,10.84.1,65.81.29,131.63-.07,197.44-.11,19.19,19.07,38.19,38,38.14,111.17-.26,222.34-.12,333.51-.15,4.93,0,9.82-.49,14.32-2.85,13-6.8,22-16.52,23.33-31.83V374.54A12.66,12.66,0,0,0,532.84,368.07Zm-51.35-18c11.54,9,22.63,17.6,33.75,26.18,1.43,1.09,1.4,1.84.15,3.08-11.17,11.14-22.28,22.34-33.9,34Zm-16.58-.9c0,1.45,0,2.91,0,4.36,0,0,0,.07,0,.1v-.21c0-1.47,0-2.94,0-4.4v0A1,1,0,0,1,464.91,349.16Zm-5.77,11.42c2.38-1,4.54-2.21,5.39-4.46a101.4,101.4,0,0,0-.31,11.3q0,28.32,0,56.64c0,2.76-.45,5.16-2.54,7.24q-29.94,29.86-59.79,59.79c-2,2.05-3.58,2-5.69,0-11.66-11.07-25-19.33-40.66-23.46-3.24-.86-3.31-1.24-.82-3.77,4.66-4.75,9.42-9.39,14.08-14.12,6.41-6.52,6.39-10.76-.1-17.32-6.83-6.9-13.75-13.71-20.57-20.61-2.47-2.5-2.35-2.94.93-4.34q36.51-15.54,73-31.13Q440.62,368.49,459.14,360.58Zm-51-83.31c3.92,3.82,7.24,11.73,4.35,17.39l-21.41-21.37C395.88,270.93,403.34,272.6,408.14,277.27ZM331,256.66c2.11-4.39,3.86-9,5.63-13.14L442.1,349.06c-4.35,1.89-9.3,4-14.21,6.18-2.25,1-3.12-.81-4.26-1.95Q389.78,319.5,356,285.65c-8-8-15.93-16-24-23.92C330.28,260.1,329.9,258.84,331,256.66ZM316.38,407.54c-7.76,7.65-15.43,15.41-23.2,23-5.17,5.07-11.56,7.31-19,7.53-11.08-.53-19.65-5.68-24.25-16.08-4.43-10-3.26-20,4.16-28.22,7.64-8.49,16-16.33,24-24.49,1.1-1.12,1.82-1.55,3.17-.19q17.55,17.7,35.26,35.25C317.92,405.74,317.5,406.43,316.38,407.54Zm-24.73-50.76c-1.17-1.17-2.5-2-1.5-4.32,11-25.45,21.75-51,32.59-76.45,1.47.34,2.11,1.44,2.93,2.26q40.75,40.71,81.56,81.37c3.07,3.05,1.95,3.55-1.17,4.87q-36,15.18-71.82,30.71c-2.39,1-3.72.56-5.44-1.18C316.47,381.56,304,369.19,291.65,356.78Zm31,73.71c-2.51-2.31-3.23-4-.13-6.34a54.86,54.86,0,0,0,5.39-5.29c.45-.45.94-.86,1.51-1.39.6.54,1.1,1,1.56,1.42,6.85,6.84,13.66,13.72,20.58,20.5,1.41,1.39,1.3,2.19-.08,3.44-2.75,2.48-5.16,6.89-8.07,7.21s-5.39-4.42-8-7C331.05,438.94,327,434.52,322.63,430.49ZM150.78,375.71c11.06-8.67,22-17.54,33.46-26.78v63.5c-.86.43-1.17-.37-1.55-.76-10.63-10.6-21.21-21.24-31.88-31.8C149.24,378.31,148.52,377.48,150.78,375.71ZM160.18,592c-2.35,2.15-3.79,1.83-5.93.1-6.79-5.49-9.81-12.64-9.8-21.24q0-42.07,0-84.15V397.34l1.06-.82a19.47,19.47,0,0,0,2,2.86q52,52.06,104.09,104.05c2,2,2.64,3.11.09,5.41Q205.81,550.24,160.18,592ZM486.45,597h-308c8.78-8,17.1-15.49,25.38-23,1.28-1.17,2.76-.71,4.16-.71,18.08,0,36.17,0,54.26,0,6.47,0,10.45-5.27,8.23-10.82-1.52-3.78-4.57-5.17-8.58-5.15-12.89.08-25.78,0-38.67,0-.05-.32-.2-.67-.1-.75,21.26-19.3,42-39.17,63.94-57.71,28.18-23.85,66.62-22.73,94.06,1.95,34.79,31.29,69.32,62.89,104,94.33a9.46,9.46,0,0,0,2,1.11Zm34.68-25c0,8.61-3.65,15.59-10.73,20.73-1.7,1.23-2.75,1.16-4.33-.29q-46.27-42.16-92.68-84.2c-1.6-1.44-1.95-2.25-.21-4q53.38-53.22,106.65-106.55a14.38,14.38,0,0,1,1.34-1C521.17,455.56,521.21,513.78,521.13,572Z"/><path class="cls-1" d="M465.21,353.91l-.3-.06-.31.06,0-5a.57.57,0,0,0,.67,0Z"/><path class="cls-1" d="M243.81,309.9c-6,0-11.95,0-17.92,0-5.48-.05-8.87-3.19-8.83-8s3.44-7.87,9-7.89q18.12-.06,36.25,0c5.55,0,9,3.07,9.05,7.85.06,5-3.43,8.05-9.21,8.09C256,309.92,249.92,309.9,243.81,309.9Z"/><path class="cls-1" d="M241,249.25c5.05,0,10.09-.05,15.14,0,5.44.06,8.89,3.24,8.84,8.05s-3.42,7.84-8.62,7.88q-15.33.09-30.67,0c-5.22,0-8.56-3.17-8.61-7.85-.05-4.86,3.33-8,8.79-8.08C230.89,249.2,235.94,249.25,241,249.25Z"/><path class="cls-1" d="M465.25,282.64c-3.28-.29-6.6.37-9.87-.59-3.8-1.11-6.09-3.93-6-7.77a7.2,7.2,0,0,1,6.29-7.48,64.62,64.62,0,0,1,19.73,0,7.81,7.81,0,0,1,6.57,7.74,8.27,8.27,0,0,1-6.41,7.57C472.12,283,468.67,282.32,465.25,282.64Z"/><path class="cls-1" d="M286.37,265.19a8,8,0,1,1,8.11-7.62A8,8,0,0,1,286.37,265.19Z"/><path class="cls-1" d="M287.91,565.44a8,8,0,0,1,7.95-8.14,8,8,0,1,1-.05,15.93A8,8,0,0,1,287.91,565.44Z"/></svg>