<svg id="Layer_1" data-name="Layer 1" xmlns="http://www.w3.org/2000/svg" viewBox="0 0 612 792"><defs><style>.cls-1{fill:#2765b0;}</style></defs><title>offer</title><path class="cls-1" d="M296.17,417.65v-6.87c9.36-4.67,15.93-13.74,15.93-24a57.61,57.61,0,0,0-.7-9.62H297v-8.66h13a89.87,89.87,0,0,1-1.54-14.84c0-16.21,11.31-26.79,26.82-26.79,7.27,0,12.3,1.65,15.23,3.44l-2.8,9.07a25.73,25.73,0,0,0-12.43-2.75c-10.89,0-15.36,7.41-15.36,17.18a73.22,73.22,0,0,0,1.67,14.7h20.12v8.66h-19c.42,5.22.7,10.44-.56,15.39a28.59,28.59,0,0,1-9.64,14.84v.28h41.62v10Z"/><path class="cls-1" d="M478.77,458.92c-5.29-11.36-17.06-15.71-29.66-10.9-2.84,1.09-5.62,2.36-8.74,3.68a11,11,0,0,1,.36-1.56c9.15-20.88,10.5-42.51,6.25-64.69-4.43-23.08-14.66-43.52-28.42-62.34A203,203,0,0,0,404,305.47c-1.87-2-4.16-2.65-6.67-1.33-2.22,1.17-3,3.17-2.67,5.64.23,1.93,1.63,3.05,2.78,4.35,21.47,24.26,37.3,51.29,40.57,84.26,2.1,21.12-1.79,41-13.37,59.14a7.77,7.77,0,0,1-3.8,2.88q-18,7.89-35.91,15.83c-8.84,3.89-17.7,7.76-26.94,11.81V484.2c.06-16.64-10.28-30.29-26.71-33-17-2.84-34.15-4.54-51.28-6.2-12-1.16-23.18-4-33.47-10.42a117.24,117.24,0,0,0-27.12-13c-7.68-2.39-7.67-2.45-7.84-10.62-.4-19.1,4.07-37.15,12.19-54.31,13.34-28.16,33.87-50.42,57.65-70,3.13-2.58,5.78-3.87,9.44-1.44a10.87,10.87,0,0,0,3.32,1.07c13.82,3.47,27.9,3.62,41.95,2.6,8.48-.61,17.08-1.59,24.52-6.43,1.45-.94,2.18,0,3,.71,4.81,3.93,9.58,7.92,14.4,11.86,3,2.47,6,2.49,8.1.13s1.95-5.56-1.18-8.24c-5.17-4.42-10.45-8.72-15.76-13-1.4-1.12-2.08-2.05-1.82-4.05a16.46,16.46,0,0,0-4.58-14.21c-2-2-1.39-3.09-.22-4.87A138,138,0,0,0,374,230.23c2.43-5.6,4.51-11.33,4.48-17.55-.05-10.62-6.67-15-16.37-10.91-2.47,1-4.91,1.59-7.44.36-3.09-1.5-6.15-3.06-9.22-4.59H337a30.26,30.26,0,0,0-7.66,3.1,7.58,7.58,0,0,1-8.28,0,22.71,22.71,0,0,0-8.72-3.11h-7.75a45,45,0,0,0-6.14,3.06c-3.79,2.6-7.38,2.62-11.5.62-7.23-3.51-13.21-.16-14.77,7.79-.91,4.64-.08,9.08,1.21,13.49,2.9,9.86,8,18.66,13.29,27.36.45.73,1.77,1.55.24,2.6-.95.65-1.65,1-2.69,0-8.93-9-19.89-11.62-32.23-10.45a36.1,36.1,0,0,1-22.77-5.7c-3.57-2.22-6.47-1.78-8.31,1s-.91,5.83,2.84,8.13c9.48,5.82,19.74,8.45,30.86,7.18,10.14-1.16,18.23,2.34,25.09,10.86a86.19,86.19,0,0,0-20,2.41c-12.64,3.19-23.62,9-31,20.24-2.21,3.39-1.79,6.5.94,8.32s5.85,1.15,8-2.42c7.37-12.45,27.62-18.44,41.62-17.36-.65.56-1.14,1-1.66,1.41a255.81,255.81,0,0,0-30.15,27.5c-17.28,18.53-31,39.26-39.41,63.34a124.05,124.05,0,0,0-6.95,47.66c.11,2.05,0,2.91-2.54,2.39a47.93,47.93,0,0,0-9.8-.81c-2.27,0-2.6-.8-2.64-2.84-.19-9.38-6.76-15.69-16.18-15.71q-11.1,0-22.19,0c-10.21,0-16.59,6.15-16.6,16.28q-.07,60.58,0,121.17c0,10.07,6.19,16.22,16.2,16.32q11.26.11,22.54,0c9.5-.09,15.5-5.77,16.3-15.27,0-.43-.07-.95.75-1.16,14.06,5.23,28.42,10.18,42.46,15.9a100.69,100.69,0,0,0,41.06,7.5c22.53-.51,45.09-.28,67.63-.08a67.55,67.55,0,0,0,37.81-11.06q47.24-30.12,94.61-60A22.23,22.23,0,0,0,478.77,458.92ZM356.68,269.23c-.38,3.25-2.24,5.2-5.47,6a108.22,108.22,0,0,1-28.7,3.43c-8.63.28-17.65-1.09-26.57-3.12-5.3-1.21-7.4-4.66-6.25-9.85.83-3.75,3.66-5.79,7.49-5a119.71,119.71,0,0,0,29.95,3,121.52,121.52,0,0,0,20.46-2.83C353.67,259.65,357.39,263.1,356.68,269.23Zm-73.56-51.65a14.25,14.25,0,0,1-.3-6.59c7.8,4.32,15,2.89,21.92-1.73,3.21-2.14,6.22-1,9.16.8,5,3.11,10.23,4.5,16.06,2.94a22.83,22.83,0,0,0,6.6-3.16,8.25,8.25,0,0,1,9.84-.07c6.07,4,12.42,5.14,19.25,2,2.44-1.11,2.18.68,2,2.1-.61,5.3-2.68,10.14-4.92,14.89a153.79,153.79,0,0,1-11.05,19.1c-.48.73-.77,1.65-1.94,1.82-8.66,1.3-17.15,3.73-26,3.48a124.86,124.86,0,0,1-22.62-2.76,3.09,3.09,0,0,1-2.27-1.37C292.55,239.11,286.24,229.14,283.12,217.58Zm182,260.34q-48.78,31-97.64,61.85a52.4,52.4,0,0,1-28.38,7.88c-26,.05-51.9,0-77.84,0-9.58,0-18.34-3.23-27.12-6.51-15-5.61-29.93-11.24-45-16.71-2.36-.86-3.16-1.91-3.14-4.45.13-17.26.06-34.52.07-51.78a8.16,8.16,0,0,0-.76-4.44,5.05,5.05,0,0,0-5.3-2.69,4.87,4.87,0,0,0-4.48,4.27,24.84,24.84,0,0,0-.18,3.86q0,32.06,0,64.11c0,6.22-1.13,7.34-7.38,7.34q-10,0-20.08,0c-4.76,0-6.18-1.45-6.18-6.32q0-29.94,0-59.88V415c0-5.19,1.47-6.67,6.67-6.68,6.93,0,13.85,0,20.78,0,4.53,0,6.14,1.61,6.17,6.18.06,8.45,0,16.91,0,25.36,0,4.93,1.66,7.11,5.28,7.12s5.42-2.33,5.44-7c0-3.17.17-6.35,0-9.51-.18-2.64.46-3.49,3.36-3.44,16.72.3,31.91,5.51,46.23,13.76,9.53,5.49,19.07,11.18,30.08,13.05,9.81,1.67,19.75,2.49,29.64,3.69,11.51,1.39,23.09,2.38,34.52,4.29,10.34,1.73,17.41,11.21,17.29,21.74-.09,7.5-.09,7.5-7.57,7.5h-44a27.4,27.4,0,0,0-3.51.15,4.81,4.81,0,0,0-4.6,4.89c-.18,3,1.49,4.85,4.3,5.58a14.54,14.54,0,0,0,3.5.17c18.2,0,36.4,0,54.6,0a16.17,16.17,0,0,0,6.79-1.43Q402.81,480,449,459.7a37.7,37.7,0,0,1,7.26-2.56c5.73-1.24,10.59,1.17,12.91,6.48A11.44,11.44,0,0,1,465.12,477.92Z"/></svg>