<svg id="Layer_1" data-name="Layer 1" xmlns="http://www.w3.org/2000/svg" viewBox="0 0 612 792"><defs><style>.cls-1{fill:#2765b0;}</style></defs><title>profits</title><path class="cls-1" d="M277.54,244.76c-14.08,0-28.17,0-42.25,0-7,0-11.26-6.1-8.29-11.75,1.83-3.47,5-4.55,8.74-4.54,18.46.05,36.91,0,55.36,0,2.25,0,4.49-.11,6.73-.05a8,8,0,0,1,8.16,8.25q0,31.43,0,62.84c0,5.39-3.11,8.87-7.85,8.93s-8.1-3.2-8.15-8.68c-.12-13.34,0-26.69,0-40v-3.52c-1.48,1.42-2.41,2.28-3.29,3.16L163.14,382.89c-1.15,1.15-2.26,2.34-3.5,3.38a7.8,7.8,0,0,1-11.08-.45,8,8,0,0,1-.19-10.85c.88-1.05,1.9-2,2.86-3L275,248.24c1-.94,2-1.8,3-2.71Z"/><path class="cls-1" d="M490.36,579.89a14.42,14.42,0,0,0-4.09-.12c-3.89.67-4.61-1-4.6-4.64q.16-132.44.08-264.88c0-11.12-6.49-17.8-17.5-17.84-20.33-.07-40.66,0-61,0-5.23,0-9.81,1.39-13.42,5.35s-4.15,8.55-4.15,13.54q0,116.16,0,232.33c0,10.85-.13,21.7.08,32.55.06,3.1-1,3.7-3.79,3.64-8-.18-16-.24-23.94,0-3.4.11-4.27-.8-4.26-4.24.11-56.49-.07-113,.23-169.47,0-9-6-18.23-18.19-18q-29.93.51-59.86,0c-11.69-.19-18.09,8.69-18,18.18.31,56.61.13,113.23.22,169.85,0,2.9-.69,3.77-3.65,3.69-8.23-.22-16.47-.24-24.69,0-3.15.09-3.63-1-3.62-3.82.1-24.57.07-49.13.05-73.7,0-12.13-6.26-18.33-18.46-18.34q-29.75,0-59.48,0c-11.6,0-18.07,6.49-18.08,18q0,36.3,0,72.58c0,5.16,0,5.32-5,5.13-4.77-.19-8.53,1.14-10.75,5.62v5.24c2.49,4.1,6,5.34,10.88,5.34q180.71-.2,361.4-.1c1,0,2,0,3,0a7.88,7.88,0,0,0,7.82-7.46A7.76,7.76,0,0,0,490.36,579.89ZM207,579.53q-28.62-.18-57.24,0c-2.62,0-3.28-.64-3.27-3.26q.17-36.48,0-73c0-2.43.32-3.4,3.13-3.38q28.8.21,57.61,0c2.43,0,3.09.6,3.06,3.06-.13,12.22-.06,24.44-.06,36.66s-.08,24.44.07,36.66C210.33,579,209.52,579.54,207,579.53Zm127.08,0q-28.24-.22-56.49,0c-2.88,0-3.47-.81-3.46-3.55q.12-84.17,0-168.34c0-2.77.61-3.53,3.47-3.5q28.43.23,56.86,0c2.87,0,3.48.74,3.47,3.5-.11,28.06-.07,56.12-.07,84.17s-.05,55.87.08,83.8C337.92,578.71,337.19,579.57,334.06,579.54Zm127.39,0q-28.24-.22-56.49,0c-2.64,0-3.24-.67-3.24-3.27q.11-132.25,0-264.5c0-2.93.85-3.39,3.52-3.38q28.42.18,56.86,0c2.79,0,3.46.63,3.46,3.44q-.15,66.23-.07,132.44c0,43.77-.05,87.54.09,131.32C465.57,579,464.6,579.57,461.45,579.54Z"/></svg>