<svg id="Layer_1" data-name="Layer 1" xmlns="http://www.w3.org/2000/svg" viewBox="0 0 612 792"><defs><style>.cls-1{fill:#2765b0;}</style></defs><title>Sold</title><path class="cls-1" d="M552.56,416.84c0-19.33-12.66-36.94-30.7-43.88-9.07-3.49-18.45-3.25-27.86-3.2-2.06,0-3.77-.21-5.47-1.81Q426.79,310,364.88,252.25c-2-1.84-2.55-3.28-1.41-5.91,2.55-5.9,2.65-12.25,1.51-18.4-3.68-19.92-24.35-33-43.41-27.82-20.51,5.59-31.87,26.5-24.81,46.16,1.05,2.92.44,4.28-1.61,6.19-38.19,35.65-76.5,71.17-114.3,107.22-7.5,7.16-14.74,10.65-25.37,10.37-18.46-.48-32.63,8.45-42.45,24.17-3.16,5.06-4.25,10.87-6.37,16.31V546.41c1.08.42.76,1.41.94,2.21,4.94,21.72,24.2,37.78,46.06,37.79q176.54.14,353.08,0c24.62,0,45.74-21.31,45.81-45.92Q552.74,478.66,552.56,416.84ZM329.92,215.32a19.4,19.4,0,0,1,19.62,19c.22,10.4-8.67,19.43-19.2,19.5a19.25,19.25,0,1,1-.42-38.49ZM195.14,368.1q55-51.47,110-103c2.48-2.32,3.88-2.25,6.75-.53,12.38,7.4,25,7.21,37.26-.4,2.06-1.28,3.31-1.71,5.39.24Q409.69,316.31,465.07,368c.37.35.7.74,1.45,1.54h-272C194.11,368.73,194.77,368.44,195.14,368.1ZM536.55,535.51c0,17.73-8.54,29.47-24.55,33.9a38.2,38.2,0,0,1-10.34,1q-172,0-343.92.11c-19.59,0-31.05-11.77-34-24.49a47.61,47.61,0,0,1-1-10.77c0-38,.26-76-.11-114.06-.22-22.7,16.24-35.39,35.22-35.23,57.32.47,114.64.17,172,.17q86.64,0,173.27,0c16.42,0,28,8.66,32.42,24.16A38.19,38.19,0,0,1,536.54,421Q536.6,478.27,536.55,535.51Z"/><path class="cls-1" d="M229.16,515a29.42,29.42,0,0,1-16-5.73c-3.27-2.45-5.68-5.48-3.91-10.05,2.2-5.66,6.2-6.92,11.13-3.32s9.77,6.35,16.06,4.41c2.42-.75,4.69-1.75,5.27-4.56s-.55-5.08-2.77-6.85c-2.51-2-5.44-3.26-8.27-4.7s-5.95-3-8.82-4.61c-8.75-5-12.65-12.72-11.11-21.65s7.78-14.86,17.55-16.81a44.55,44.55,0,0,1,20.25.93c6.38,1.68,8.73,6,6.39,11.22-1.82,4.05-4.38,5.26-8.35,3.29a23.13,23.13,0,0,0-13.43-2.51c-3,.36-5.75,1.23-6.69,4.57-1,3.56,1.78,5,4.06,6.32,4.27,2.41,8.88,4.21,13.16,6.59,11.79,6.55,16.36,16.24,13.28,27.65C254.27,509.3,245.29,515.08,229.16,515Z"/><path class="cls-1" d="M342.89,477.44c0-9.57,0-19.14,0-28.71,0-5.6,2.18-7.63,8-7.68,6.12-.05,8.25,1.95,8.25,7.83,0,15.95.09,31.9-.07,47.85,0,3.07.77,3.92,3.81,3.78,5.65-.26,11.31-.14,17-.05,4.68.07,6.4,2,6.36,6.8,0,4.59-1.65,6.4-6.22,6.44-9.72.09-19.44.15-29.15,0-6.8-.13-8-1.58-8-8.39Q342.88,491.36,342.89,477.44Z"/><path class="cls-1" d="M451.56,461.08c-.53-9.54-6.31-16.95-15.48-19.1-9.41-2.22-19-1.35-28.56-.85-3.41.17-4.73,2.79-4.71,6.17.07,10,0,20,0,30q0,14.58,0,29.16c0,5.55,1.17,7,6.78,7.16a177.33,177.33,0,0,0,23.05-.37c11.07-1.13,18.27-8.59,18.9-19.59A288.24,288.24,0,0,0,451.56,461.08ZM435.87,489c-.16,9.81-7.51,14.76-16.65,11.39-1.66-.61-1.1-1.84-1.1-2.85-.06-6.66,0-13.32,0-20s.06-13.32,0-20c0-2,.42-2.67,2.6-2.77,12.81-.59,15.24,1.66,15.24,14.64C435.89,476,436,482.52,435.87,489Z"/><path class="cls-1" d="M322.65,459.23c-1-8.79-6.17-14.44-14.59-17a33.43,33.43,0,0,0-13.78-1c-12.07,1.48-18.21,7.81-19.8,19.86-.74,5.65-.18,11.3-.42,16,0,5.05-.09,9.11,0,13.17.39,15.77,7.08,23.28,22.74,24.37C310,515.51,322,510.06,323,494,323.66,482.39,324,470.78,322.65,459.23Zm-14.78,33c-.21,5.54-3.52,8.72-8.69,8.74-5,0-8.49-3-8.64-8.34q-.41-14.76,0-29.53c.17-5.59,3.68-8.4,9.1-8.21,5.07.18,8,3.15,8.23,8.66.18,4.78,0,9.56,0,14.34S308.05,487.47,307.87,492.25Z"/></svg>