<svg id="Layer_1" data-name="Layer 1" xmlns="http://www.w3.org/2000/svg" viewBox="0 0 612 792"><defs><style>.cls-1{fill:#2765b0;}</style></defs><title>valuation</title><path class="cls-1" d="M364.38,300.94q-5.4-19.15-10.85-38.3c-1.56-5.47-2.89-6.4-8.79-6.4-20.07,0-40.14-.07-60.21.08-2.91,0-3.51-.82-3.38-3.51.23-4.73.12-9.47,0-14.21-.06-4-2.24-6.25-6.24-6.28-7.73-.07-15.46-.06-23.19,0-4.25,0-6.4,2.2-6.46,6.44-.06,4,0,8,0,12,0,5.42,0,5.52-5.33,5.49-3.33,0-5.61,1.37-6.51,4.46q-6.06,20.7-11.87,41.48c-1.25,4.51,1.5,7.86,6.21,8a62.6,62.6,0,0,0,8.22-.05c3-.34,3.37.9,3.36,3.52-.11,18.32-.07,36.65-.06,55,0,5.45,1.95,7.41,7.38,7.41q23.19,0,46.37,0t46.37,0c5.7,0,7.61-1.89,7.61-7.57q0-24.12,0-48.24c0-3.22-1.1-7.56.53-9.36,1.91-2.09,6.32-.46,9.63-.68h.37C363.83,310.07,366.1,307,364.38,300.94ZM263.61,244.26c5.64,0,5.64,0,5.64,5.58,0,6.39,0,6.39-6.33,6.39-5.64,0-5.64,0-5.64-5.58C257.28,244.26,257.28,244.26,263.61,244.26ZM335.16,361c0,2.44-.61,3.07-3.06,3.06q-38.89-.14-77.8,0c-2.43,0-3.08-.6-3.06-3.05q.18-23.94,0-47.88c0-2.44.61-3.08,3.06-3.06,13,.13,25.93.06,38.9.06s25.94.07,38.9-.06c2.43,0,3.08.6,3.06,3.05Q335,337.05,335.16,361Zm-99.73-63c2.71-9.48,5.39-18.75,8-28.05.43-1.53,1.27-1.75,2.66-1.75q47.12.06,94.24,0c1.38,0,2.24.18,2.67,1.73,2.59,9.3,5.27,18.57,8,28.07Z"/><path class="cls-1" d="M412.45,387.93c-32.73,0-59.42,26.89-59.39,59.75a59.86,59.86,0,1,0,119.72-.17C472.77,414.39,446,387.9,412.45,387.93Zm0,107.71A48.13,48.13,0,0,1,365,447.43c.16-26.27,22.18-47.84,48.51-47.51,25.94.32,47.46,22.21,47.24,48.05C460.57,474.44,438.77,495.93,412.46,495.64Z"/><path class="cls-1" d="M391.3,479.37v-5.21c7-3.54,11.88-10.42,11.88-18.23a44.24,44.24,0,0,0-.52-7.3H391.93v-6.57h9.69a69.43,69.43,0,0,1-1.15-11.25c0-12.29,8.44-20.32,20-20.32,5.42,0,9.17,1.25,11.36,2.61L429.74,420a18.89,18.89,0,0,0-9.27-2.09c-8.13,0-11.46,5.62-11.46,13a56.12,56.12,0,0,0,1.25,11.14h15v6.57H411.09c.31,4,.52,7.92-.42,11.67a21.68,21.68,0,0,1-7.19,11.25v.21h31v7.61Z"/><path class="cls-1" d="M532,534.4c-14.49-14.78-29.21-29.33-43.9-43.91-1.47-1.46-1.72-2.42-.72-4.36,8.92-17.3,11.39-35.55,7.85-54.68-6.44-34.86-37.32-63.52-72.18-66.68-3.26-.3-4.22-1.3-4.21-4.67q.18-75,.08-150c0-5.92-1.84-7.74-7.81-7.74q-96.88,0-193.76-.06a10.23,10.23,0,0,0-7.88,3.31q-19.2,19.41-38.61,38.62a10.59,10.59,0,0,0-3.42,8.21q.15,78.18.07,156.35V565.9c0,5.71,1.89,7.6,7.57,7.6h236.4c5.46,0,7.43-2,7.44-7.37,0-10.35.14-20.7-.08-31-.07-3.11,1-4,3.87-4.21a72.58,72.58,0,0,0,27.66-8.19c2.43-1.27,3.84-1.27,5.91.84,14.16,14.4,28.48,28.65,42.8,42.9,6.78,6.74,14.89,8.89,24,5.89A22.87,22.87,0,0,0,532,534.4ZM209.31,223.73c0,6.27,0,12.57,0,18.87,0,1.34-.5,1.68-1.75,1.67-6.28-.05-12.57,0-18.79,0C195.66,237.38,202.37,230.66,209.31,223.73ZM407,535.08c-.28,7.85-.17,15.71,0,23.57,0,2.19-.34,3.17-2.8,2.94s-5.23-.05-7.85-.05q-106.44,0-212.87.07c-3.13,0-4.09-.53-4.09-4q.16-148.71,0-297.42c0-3.14.53-4.19,4-4.09,10.22.28,20.45.11,30.67.09,2.61,0,4.4-.48,5.57-1.58h0c1.39-1,1.69-3.32,1.74-4.49h0v-.31c0-.25,0-.4,0-.4V246.3c0-9.65.07-19.3-.06-28.94,0-2.43.6-3.07,3-3.07q89.79.11,179.58,0c2.44,0,3.06.61,3.06,3.05q-.12,71.84,0,143.66c0,2.59-.79,3.36-3.23,3.64-24.13,2.78-43.5,14-58.11,33.34-1.38,1.83-2.89,1.95-4.81,1.95-32.67,0-65.35,0-98-.1-3,0-3.65.85-3.59,3.68.17,8.37,0,8.37,8.55,8.37H337c-1.44,3.81-2.86,7.24-4,10.75-.61,1.88-2,1.18-3,1.19-8.48.06-17,0-25.44,0-28.56,0-57.12,0-85.67-.06-2.66,0-3.59.43-3.53,3.37.19,8.66,0,8.66,8.65,8.66,34.17,0,68.34,0,102.51-.07,3,0,4.08.72,3.15,3.67a8.15,8.15,0,0,0-.32,1.84c-.17,2.08.41,5.35-.62,6-1.75,1.06-4.51.54-6.85.54q-51.43,0-102.88-.06c-3,0-3.67.79-3.61,3.66.18,8.38,0,8.38,8.53,8.38,34,0,68.09.06,102.13-.09,3.41,0,4.52,1,4.76,4.23a59.1,59.1,0,0,0,1.64,7.84H328c-36.29,0-72.58.05-108.87-.08-3.13,0-3.91.74-3.82,3.84.23,8.21.07,8.21,8.34,8.21,36.41,0,72.83,0,109.24-.08,3.1,0,5,.54,6.24,3.65,1.12,2.82,3,5.33,4.8,8.4h-4.32q-60.24,0-120.47-.08c-3.09,0-3.94.67-3.85,3.82.24,8.23.07,8.23,8.32,8.23q63.6,0,127.2,0a8.12,8.12,0,0,1,5.91,2.29c13.25,11.86,28.66,19.09,46.42,21C406,531.17,407.14,531.91,407,535.08Zm5-15.5c-39.54-.48-71.47-33.31-70.94-73,.52-39.25,33.5-71.22,72.88-70.65,39,.56,71.18,33.28,70.75,72C484.3,488,451.76,520.06,412.05,519.58ZM520.94,560a10.25,10.25,0,0,1-11.26-.53,20.7,20.7,0,0,1-3.08-2.69c-13.39-13.36-26.73-26.78-40.18-40.08-1.88-1.86-2.48-2.88,0-4.71a56.7,56.7,0,0,0,11.06-11c1.18-1.5,2-2.11,3.64-.4q20.88,21.09,41.94,42a12.24,12.24,0,0,1,3.55,8C526.26,554.67,524.65,558,520.94,560Z"/></svg>